<svg xmlns="http://www.w3.org/2000/svg" viewBox="0 0 546.55 179.17"><title>Ativo 1</title><g id="Camada_2" data-name="Camada 2"><g id="Camada_1-2" data-name="Camada 1"><path d="M364.93,107.93l26.64-32H374.85l-18.44,22-18.31-22H321.26l26.79,32-30.43,36.26,16.71,0,22.08-26.28,22.19,26.24,16.75,0Z" style="fill:#3b3b3b"/><path d="M461.81,84.89a35.1,35.1,0,0,0-25.06-10.23c-8.46,0-16.47,4-22.84,9.35V35.21H401.14v109h12.77v-7.95c6.37,5.34,14.38,9.34,22.84,9.34a35.46,35.46,0,0,0,25.06-60.67ZM436.75,133.1a23,23,0,1,1,22.84-23A23,23,0,0,1,436.75,133.1Z" style="fill:#3b3b3b"/><path d="M490.11,48.35a8.34,8.34,0,0,0-8.46,8.31,8.38,8.38,0,1,0,16.76,0A8.29,8.29,0,0,0,490.11,48.35Zm-6.38,27.59v68.27h12.76V75.94Z" style="fill:#3b3b3b"/><path d="M543.28,132H531.86c-5.33,0-10.08-5.17-10.08-10.67V88.15H542.7V76H521.78V47.64H509l0,28.63h0V88.42h0v33.24a22.44,22.44,0,0,0,22.55,22.54h15Z" style="fill:#3b3b3b"/><path d="M311.12,84.63a35.08,35.08,0,0,0-25.07-10.22,35.52,35.52,0,1,0,0,71,35.56,35.56,0,0,0,25.07-60.82Zm-25.07,48.06a22.77,22.77,0,1,1,22.85-22.84A22.84,22.84,0,0,1,286.05,132.69Z" style="fill:#3b3b3b"/><circle cx="89.59" cy="89.59" r="89.59" style="fill:#ff7400"/><path d="M88.84,143.89l-11-9.56a1.57,1.57,0,0,0-.3-.2L38.6,115.46a1.35,1.35,0,0,1-.68-1.67l12-32.7a1.33,1.33,0,0,0,0-.88L39.53,49.36a1.33,1.33,0,0,1,1.95-1.57l33.4,20a1.34,1.34,0,0,0,.68.19h28.31a1.35,1.35,0,0,0,.69-.19l33.4-20a1.33,1.33,0,0,1,1.95,1.57L129.55,80.21a1.33,1.33,0,0,0,0,.88l11.95,32.7a1.34,1.34,0,0,1-.67,1.67l-39,18.67a2,2,0,0,0-.3.2l-11,9.56A1.34,1.34,0,0,1,88.84,143.89ZM44.21,112.21,80.69,129.7l9,7.86,9-7.86,36.48-17.49L123.72,80.73,131.37,58,105.73,73.33h-32L48.07,58l7.65,22.75Z" style="fill:#fff"/><rect x="50.97" y="73.69" width="24.32" height="5.36" transform="translate(-28.4 38.43) rotate(-27.91)" style="fill:#fff"/><rect x="113.71" y="64.21" width="5.36" height="24.32" transform="translate(-5.57 143.48) rotate(-62.1)" style="fill:#fff"/><polygon points="89.67 121.25 51.38 83.5 55.15 79.69 89.7 113.76 124.89 79.67 128.62 83.52 89.67 121.25" style="fill:#fff"/><rect x="72.8" y="99.42" width="5.36" height="33.4" transform="translate(-25.39 21.22) rotate(-13.72)" style="fill:#fff"/><rect x="87.29" y="113.48" width="33.39" height="5.36" transform="translate(-34.11 188.51) rotate(-75.82)" style="fill:#fff"/><path d="M17.72,62.59a73.3,73.3,0,0,0-3.29,42.34c3.46,16.07,10.81,29.53,21.85,40s25.42,17.43,42.29,20.28l1.21.2c.31,0,.6.09.84.11a1,1,0,0,1,.87,1v3.57a1,1,0,0,1-1.08,1l-.23,0h0l-.4,0-2-.19-.27,0c-17.91-3.06-33.06-10.47-45-21.83S12.7,123.28,9,106.09a78.92,78.92,0,0,1,3.55-45.53A85.18,85.18,0,0,1,36.1,27.33a78.58,78.58,0,0,1,36.75-18C74.54,9,76.28,8.71,78,8.51l2.43-.25a1,1,0,0,1,1.08,1v3.57a1,1,0,0,1-.87,1c-1.73.21-5.54.71-6.75.93A73.25,73.25,0,0,0,39.73,31.53,79.71,79.71,0,0,0,17.72,62.59Z" style="fill:#fff"/><path d="M80.18,171.05h0l-.4,0Z" style="fill:#fff"/><path d="M161.45,62.52a73.31,73.31,0,0,1,3.29,42.34c-3.46,16.07-10.81,29.53-21.85,40s-25.42,17.43-42.28,20.28l-1.22.21-.84.11a1,1,0,0,0-.87,1V170a1,1,0,0,0,1.09,1l.22,0h0l.4,0,2-.19.27,0c17.91-3.05,33.06-10.47,45-21.82s19.76-25.69,23.46-42.87a78.82,78.82,0,0,0-3.55-45.53,85.21,85.21,0,0,0-23.55-33.24,78.59,78.59,0,0,0-36.74-18c-1.7-.32-3.43-.59-5.14-.79,0,0-1.38-.15-2.42-.24a1,1,0,0,0-1.09,1v3.57a1,1,0,0,0,.87,1c1.73.22,5.54.71,6.75.94a73.13,73.13,0,0,1,34.14,16.77A79.61,79.61,0,0,1,161.45,62.52Z" style="fill:#fff"/><path d="M99,171h0l.4,0Z" style="fill:#fff"/><path d="M237.64,47.21h11.41l3.26-12.15h-15A22.28,22.28,0,0,0,214.81,57.3v8.16h0V104h0v39.93h12.76V88.11h20.88V76H227.57V57.59C227.57,52.11,232.31,47.21,237.64,47.21Z" style="fill:#3b3b3b"/></g></g></svg>